<?xml version="1.0" encoding="UTF-8" standalone="no"?>
<!DOCTYPE svg PUBLIC "-//W3C//DTD SVG 1.1//EN" "http://www.w3.org/Graphics/SVG/1.1/DTD/svg11.dtd">
<svg width="100%" height="100%" viewBox="0 0 300 300" version="1.1" xmlns="http://www.w3.org/2000/svg" xmlns:xlink="http://www.w3.org/1999/xlink" xml:space="preserve" xmlns:serif="http://www.serif.com/" style="fill-rule:evenodd;clip-rule:evenodd;stroke-linejoin:round;stroke-miterlimit:2;">
    <g transform="matrix(0.58,0,0,0.58,-615.846,-598.97)">
        <g transform="matrix(0.826913,0,0,0.870046,289.216,-63.8475)">
            <path d="M1549.39,1413.92C1549.39,1334.63 1481.65,1270.25 1398.22,1270.25L1095.89,1270.25C1012.46,1270.25 944.73,1334.63 944.73,1413.92L944.73,1701.26C944.73,1780.56 1012.46,1844.93 1095.89,1844.93L1398.22,1844.93C1481.65,1844.93 1549.39,1780.56 1549.39,1701.26L1549.39,1413.92Z"/>
        </g>
        <g transform="matrix(1.45642,0,0,1.45642,587.471,-1004.87)">
            <g transform="matrix(0.67678,0,0,0.67678,-451.758,519.352)">
                <path d="M1246.33,1736.77L1246.33,1466.36C1246.33,1466.25 1246.33,1466.13 1246.33,1466.02C1246.4,1444.42 1254.11,1425.98 1269.42,1410.66C1284.63,1395.46 1302.93,1387.76 1324.34,1387.58L1324.35,1387.58L1497.88,1387.58L1497.89,1387.58C1519.3,1387.76 1537.61,1395.46 1552.82,1410.66C1568.12,1425.98 1575.83,1444.42 1575.9,1466.02C1575.9,1466.13 1575.9,1466.25 1575.9,1466.36L1575.9,1524.95C1575.9,1546.69 1568.21,1565.21 1552.82,1580.5C1537.42,1595.8 1518.86,1603.44 1497.12,1603.44L1294.24,1603.44L1294.24,1736.77L1246.33,1736.77ZM1528,1518.31L1528,1472.71C1528,1460.78 1524,1450.78 1516.02,1442.7C1508.04,1434.62 1497.98,1430.58 1485.86,1430.58L1336.37,1430.58C1324.25,1430.58 1314.2,1434.62 1306.21,1442.7C1298.23,1450.78 1294.24,1460.78 1294.24,1472.71L1294.24,1560.16L1485.86,1560.16C1497.98,1560.16 1508.04,1556.16 1516.02,1548.18C1524,1540.19 1528,1530.24 1528,1518.31Z" style="fill:white;"/>
            </g>
            <g transform="matrix(2.34787e-15,-7.66874,7.66874,2.34787e-15,-2036.42,4538.03)">
                <rect x="370.944" y="325.183" width="3.912" height="3.916" style="fill:rgb(54,154,73);fill-rule:nonzero;"/>
            </g>
        </g>
    </g>
</svg>
